<svg width="10" height="10" viewBox="0 0 16 16" fill="none" xmlns="http://www.w3.org/2000/svg">
<path fill-rule="evenodd" clip-rule="evenodd" d="M15.7071 0.292893C15.3166 -0.0976311 14.6834 -0.0976311 14.2929 0.292893L0.292894 14.2929C-0.0976312 14.6834 -0.0976312 15.3166 0.292894 15.7071C0.683418 16.0976 1.31658 16.0976 1.70711 15.7071L15.7071 1.70711C16.0976 1.31658 16.0976 0.683417 15.7071 0.292893Z" fill="#8C979B"/>
<path d="M7.29289 5.87868L1.70711 0.292893C1.31658 -0.0976311 0.683418 -0.0976311 0.292893 0.292893C-0.0976309 0.683417 -0.0976309 1.31658 0.292893 1.70711L5.87868 7.29289L7.29289 5.87868Z" fill="#8C979B"/>
<path d="M8.70711 10.1213L10.1213 8.70711L15.7071 14.2929C16.0976 14.6834 16.0976 15.3166 15.7071 15.7071C15.3166 16.0976 14.6834 16.0976 14.2929 15.7071L8.70711 10.1213Z" fill="#8C979B"/>
</svg>
